<svg width="273" height="37" viewBox="0 0 273 37" fill="none" xmlns="http://www.w3.org/2000/svg">
<path d="M24.4 28.24C22.208 28.24 20.496 27.672 19.264 26.536C18.048 25.4 17.4 23.816 17.32 21.784C17.304 21.32 17.296 20.576 17.296 19.552C17.296 18.528 17.304 17.784 17.32 17.32C17.4 15.336 18.056 13.784 19.288 12.664C20.536 11.528 22.24 10.96 24.4 10.96C25.872 10.96 27.136 11.208 28.192 11.704C29.248 12.2 30.048 12.824 30.592 13.576C31.136 14.312 31.424 15.04 31.456 15.76V15.808C31.456 15.936 31.408 16.048 31.312 16.144C31.216 16.224 31.096 16.264 30.952 16.264H28.48C28.32 16.264 28.2 16.24 28.12 16.192C28.04 16.128 27.968 16.024 27.904 15.88C27.68 15.288 27.288 14.784 26.728 14.368C26.168 13.936 25.392 13.72 24.4 13.72C23.28 13.72 22.4 14.024 21.76 14.632C21.136 15.24 20.8 16.176 20.752 17.44C20.736 17.904 20.728 18.608 20.728 19.552C20.728 20.48 20.736 21.184 20.752 21.664C20.848 24.208 22.08 25.48 24.448 25.48C25.584 25.48 26.496 25.176 27.184 24.568C27.872 23.944 28.216 23.024 28.216 21.808V21.064H25.288C25.112 21.064 24.968 21.008 24.856 20.896C24.76 20.784 24.712 20.64 24.712 20.464V19.192C24.712 19.016 24.76 18.872 24.856 18.76C24.968 18.648 25.112 18.592 25.288 18.592H31.024C31.2 18.592 31.336 18.648 31.432 18.76C31.544 18.872 31.6 19.016 31.6 19.192V21.712C31.6 23.04 31.304 24.2 30.712 25.192C30.136 26.168 29.304 26.92 28.216 27.448C27.128 27.976 25.856 28.24 24.4 28.24ZM36.2367 28C36.0607 28 35.9167 27.952 35.8047 27.856C35.6927 27.744 35.6367 27.6 35.6367 27.424V11.8C35.6367 11.624 35.6927 11.48 35.8047 11.368C35.9167 11.256 36.0607 11.2 36.2367 11.2H38.1327C38.4687 11.2 38.7087 11.352 38.8527 11.656L43.4847 20.296L48.1647 11.656C48.3247 11.352 48.5647 11.2 48.8847 11.2H50.7567C50.9327 11.2 51.0767 11.256 51.1887 11.368C51.3007 11.48 51.3567 11.624 51.3567 11.8V27.424C51.3567 27.6 51.3007 27.744 51.1887 27.856C51.0767 27.952 50.9327 28 50.7567 28H48.7407C48.5807 28 48.4447 27.944 48.3327 27.832C48.2207 27.72 48.1647 27.584 48.1647 27.424V17.032L44.8047 23.44C44.5967 23.792 44.3247 23.968 43.9887 23.968H43.0047C42.6687 23.968 42.3967 23.792 42.1887 23.44L38.8287 17.032V27.424C38.8287 27.584 38.7727 27.72 38.6607 27.832C38.5647 27.944 38.4287 28 38.2527 28H36.2367ZM61.8818 28.24C60.4578 28.24 59.2338 28.024 58.2098 27.592C57.1858 27.16 56.4098 26.592 55.8818 25.888C55.3538 25.184 55.0738 24.424 55.0418 23.608C55.0418 23.464 55.0898 23.344 55.1858 23.248C55.2818 23.152 55.4018 23.104 55.5458 23.104H57.6818C57.8738 23.104 58.0178 23.144 58.1138 23.224C58.2258 23.288 58.3298 23.4 58.4258 23.56C58.5858 24.104 58.9538 24.56 59.5298 24.928C60.1058 25.296 60.8898 25.48 61.8818 25.48C63.0178 25.48 63.8738 25.296 64.4498 24.928C65.0258 24.544 65.3138 24.016 65.3138 23.344C65.3138 22.896 65.1618 22.528 64.8578 22.24C64.5698 21.952 64.1298 21.704 63.5378 21.496C62.9618 21.288 62.0978 21.032 60.9458 20.728C59.0578 20.28 57.6738 19.688 56.7938 18.952C55.9298 18.2 55.4978 17.136 55.4978 15.76C55.4978 14.832 55.7458 14.008 56.2418 13.288C56.7538 12.568 57.4818 12 58.4258 11.584C59.3858 11.168 60.4978 10.96 61.7618 10.96C63.0738 10.96 64.2098 11.192 65.1698 11.656C66.1298 12.12 66.8578 12.704 67.3538 13.408C67.8658 14.096 68.1378 14.784 68.1698 15.472C68.1698 15.616 68.1218 15.736 68.0258 15.832C67.9298 15.928 67.8098 15.976 67.6658 15.976H65.4338C65.0978 15.976 64.8658 15.824 64.7378 15.52C64.6418 15.008 64.3218 14.584 63.7778 14.248C63.2338 13.896 62.5618 13.72 61.7618 13.72C60.8658 13.72 60.1618 13.888 59.6498 14.224C59.1378 14.56 58.8818 15.048 58.8818 15.688C58.8818 16.136 59.0098 16.504 59.2658 16.792C59.5218 17.08 59.9218 17.336 60.4658 17.56C61.0258 17.784 61.8258 18.032 62.8658 18.304C64.2738 18.624 65.3938 18.984 66.2258 19.384C67.0738 19.784 67.6978 20.288 68.0978 20.896C68.4978 21.504 68.6978 22.28 68.6978 23.224C68.6978 24.248 68.4098 25.144 67.8338 25.912C67.2738 26.664 66.4738 27.24 65.4338 27.64C64.4098 28.04 63.2258 28.24 61.8818 28.24Z" fill="white"/>
<line x1="43" y1="1" x2="86" y2="1.00001" stroke="white" stroke-width="2"/>
<line x1="85" y1="4.37114e-08" x2="85" y2="28" stroke="white" stroke-width="2"/>
<line x1="43" y1="36" x2="-2.62268e-07" y2="36" stroke="white" stroke-width="2"/>
<line x1="1" y1="37" x2="1" y2="9" stroke="white" stroke-width="2"/>
<path d="M93.274 24.66C93.1807 24.66 93.1013 24.6273 93.036 24.562C92.9707 24.506 92.938 24.4267 92.938 24.324V15.056C92.938 14.9533 92.9707 14.874 93.036 14.818C93.1013 14.7527 93.1807 14.72 93.274 14.72H94.38C94.4827 14.72 94.562 14.7527 94.618 14.818C94.6833 14.874 94.716 14.9533 94.716 15.056V15.616C95.2387 14.9253 95.9853 14.58 96.956 14.58C97.8987 14.58 98.622 14.8787 99.126 15.476C99.63 16.064 99.9007 16.862 99.938 17.87C99.9473 17.982 99.952 18.1453 99.952 18.36C99.952 18.584 99.9473 18.752 99.938 18.864C99.9007 19.844 99.63 20.6373 99.126 21.244C98.622 21.8413 97.8987 22.14 96.956 22.14C96.0133 22.14 95.2947 21.8087 94.8 21.146V24.324C94.8 24.4267 94.7673 24.506 94.702 24.562C94.646 24.6273 94.5667 24.66 94.464 24.66H93.274ZM96.438 20.642C97.446 20.642 97.9827 20.0213 98.048 18.78C98.0573 18.6867 98.062 18.5467 98.062 18.36C98.062 18.1733 98.0573 18.0333 98.048 17.94C97.9827 16.6987 97.446 16.078 96.438 16.078C95.8967 16.078 95.4953 16.2507 95.234 16.596C94.9727 16.9413 94.828 17.366 94.8 17.87L94.786 18.402L94.8 18.948C94.8187 19.4147 94.9633 19.816 95.234 20.152C95.514 20.4787 95.9153 20.642 96.438 20.642ZM101.86 22C101.766 22 101.687 21.9673 101.622 21.902C101.556 21.8367 101.524 21.7573 101.524 21.664V15.07C101.524 14.9767 101.556 14.8973 101.622 14.832C101.687 14.7573 101.766 14.72 101.86 14.72H102.994C103.096 14.72 103.18 14.7527 103.246 14.818C103.311 14.8833 103.344 14.9673 103.344 15.07V15.644C103.568 15.3453 103.848 15.1167 104.184 14.958C104.529 14.7993 104.921 14.72 105.36 14.72H105.934C106.036 14.72 106.116 14.7527 106.172 14.818C106.237 14.874 106.27 14.9533 106.27 15.056V16.064C106.27 16.1573 106.237 16.2367 106.172 16.302C106.116 16.3673 106.036 16.4 105.934 16.4H104.842C104.403 16.4 104.058 16.526 103.806 16.778C103.554 17.03 103.428 17.3753 103.428 17.814V21.664C103.428 21.7573 103.395 21.8367 103.33 21.902C103.264 21.9673 103.18 22 103.078 22H101.86ZM110.486 22.14C109.394 22.14 108.549 21.86 107.952 21.3C107.354 20.7307 107.032 19.956 106.986 18.976L106.972 18.36L106.986 17.744C107.032 16.7733 107.359 16.0033 107.966 15.434C108.572 14.8647 109.412 14.58 110.486 14.58C111.559 14.58 112.399 14.8647 113.006 15.434C113.612 16.0033 113.939 16.7733 113.986 17.744C113.995 17.856 114 18.0613 114 18.36C114 18.6587 113.995 18.864 113.986 18.976C113.939 19.956 113.617 20.7307 113.02 21.3C112.422 21.86 111.578 22.14 110.486 22.14ZM110.486 20.754C110.98 20.754 111.363 20.6 111.634 20.292C111.904 19.9747 112.054 19.5127 112.082 18.906C112.091 18.8127 112.096 18.6307 112.096 18.36C112.096 18.0893 112.091 17.9073 112.082 17.814C112.054 17.2073 111.904 16.75 111.634 16.442C111.363 16.1247 110.98 15.966 110.486 15.966C109.991 15.966 109.608 16.1247 109.338 16.442C109.067 16.75 108.918 17.2073 108.89 17.814L108.876 18.36L108.89 18.906C108.918 19.5127 109.067 19.9747 109.338 20.292C109.608 20.6 109.991 20.754 110.486 20.754ZM116.589 22C116.496 22 116.416 21.9673 116.351 21.902C116.286 21.8367 116.253 21.7573 116.253 21.664V16.204H115.119C115.026 16.204 114.946 16.1713 114.881 16.106C114.816 16.0313 114.783 15.9473 114.783 15.854V15.056C114.783 14.9627 114.816 14.8833 114.881 14.818C114.946 14.7527 115.026 14.72 115.119 14.72H116.253V14.146C116.253 12.4753 117.168 11.64 118.997 11.64H119.949C120.052 11.64 120.131 11.6727 120.187 11.738C120.252 11.794 120.285 11.8733 120.285 11.976V12.774C120.285 12.8767 120.252 12.9607 120.187 13.026C120.122 13.0913 120.042 13.124 119.949 13.124H119.053C118.689 13.124 118.432 13.2127 118.283 13.39C118.143 13.5673 118.073 13.8427 118.073 14.216V14.72H119.809C119.912 14.72 119.991 14.7527 120.047 14.818C120.112 14.874 120.145 14.9533 120.145 15.056V15.854C120.145 15.9567 120.112 16.0407 120.047 16.106C119.982 16.1713 119.902 16.204 119.809 16.204H118.073V21.664C118.073 21.7573 118.04 21.8367 117.975 21.902C117.91 21.9673 117.83 22 117.737 22H116.589ZM124.292 22.14C123.256 22.14 122.43 21.8413 121.814 21.244C121.208 20.6373 120.886 19.788 120.848 18.696L120.834 18.346L120.848 17.996C120.895 16.932 121.222 16.0967 121.828 15.49C122.444 14.8833 123.266 14.58 124.292 14.58C125.394 14.58 126.243 14.916 126.84 15.588C127.447 16.26 127.75 17.156 127.75 18.276V18.57C127.75 18.6633 127.718 18.7427 127.652 18.808C127.587 18.8733 127.503 18.906 127.4 18.906H122.752V19.018C122.771 19.5313 122.911 19.9653 123.172 20.32C123.443 20.6653 123.812 20.838 124.278 20.838C124.829 20.838 125.272 20.6233 125.608 20.194C125.692 20.0913 125.758 20.026 125.804 19.998C125.86 19.97 125.94 19.956 126.042 19.956H127.246C127.33 19.956 127.4 19.984 127.456 20.04C127.522 20.0867 127.554 20.1473 127.554 20.222C127.554 20.446 127.419 20.712 127.148 21.02C126.887 21.3187 126.509 21.58 126.014 21.804C125.52 22.028 124.946 22.14 124.292 22.14ZM125.846 17.73V17.688C125.846 17.1373 125.706 16.694 125.426 16.358C125.156 16.022 124.778 15.854 124.292 15.854C123.807 15.854 123.429 16.022 123.158 16.358C122.888 16.694 122.752 17.1373 122.752 17.688V17.73H125.846ZM131.995 22.14C131.295 22.14 130.707 22.0373 130.231 21.832C129.755 21.6173 129.4 21.37 129.167 21.09C128.943 20.8007 128.831 20.5533 128.831 20.348C128.831 20.2547 128.863 20.18 128.929 20.124C128.994 20.068 129.069 20.04 129.153 20.04H130.259C130.343 20.04 130.413 20.0727 130.469 20.138C130.506 20.166 130.604 20.25 130.763 20.39C130.921 20.5393 131.108 20.656 131.323 20.74C131.537 20.824 131.775 20.866 132.037 20.866C132.41 20.866 132.718 20.7913 132.961 20.642C133.203 20.4927 133.325 20.2873 133.325 20.026C133.325 19.83 133.269 19.6713 133.157 19.55C133.054 19.4287 132.863 19.3213 132.583 19.228C132.303 19.1253 131.887 19.018 131.337 18.906C130.543 18.738 129.955 18.4813 129.573 18.136C129.199 17.7907 129.013 17.3333 129.013 16.764C129.013 16.3907 129.125 16.0407 129.349 15.714C129.573 15.378 129.904 15.1073 130.343 14.902C130.791 14.6873 131.323 14.58 131.939 14.58C132.564 14.58 133.105 14.6827 133.563 14.888C134.02 15.084 134.365 15.322 134.599 15.602C134.841 15.8727 134.963 16.1153 134.963 16.33C134.963 16.414 134.93 16.4887 134.865 16.554C134.809 16.61 134.739 16.638 134.655 16.638H133.619C133.544 16.638 133.465 16.6053 133.381 16.54C133.315 16.4933 133.213 16.4047 133.073 16.274C132.933 16.1433 132.769 16.0407 132.583 15.966C132.396 15.8913 132.177 15.854 131.925 15.854C131.579 15.854 131.309 15.9287 131.113 16.078C130.926 16.2273 130.833 16.4233 130.833 16.666C130.833 16.8433 130.879 16.988 130.973 17.1C131.066 17.212 131.248 17.3193 131.519 17.422C131.789 17.5247 132.195 17.6273 132.737 17.73C133.633 17.9073 134.272 18.1827 134.655 18.556C135.047 18.9293 135.243 19.3867 135.243 19.928C135.243 20.5813 134.958 21.1133 134.389 21.524C133.819 21.9347 133.021 22.14 131.995 22.14ZM139.446 22.14C138.746 22.14 138.158 22.0373 137.682 21.832C137.206 21.6173 136.851 21.37 136.618 21.09C136.394 20.8007 136.282 20.5533 136.282 20.348C136.282 20.2547 136.314 20.18 136.38 20.124C136.445 20.068 136.52 20.04 136.604 20.04H137.71C137.794 20.04 137.864 20.0727 137.92 20.138C137.957 20.166 138.055 20.25 138.214 20.39C138.372 20.5393 138.559 20.656 138.774 20.74C138.988 20.824 139.226 20.866 139.488 20.866C139.861 20.866 140.169 20.7913 140.412 20.642C140.654 20.4927 140.776 20.2873 140.776 20.026C140.776 19.83 140.72 19.6713 140.608 19.55C140.505 19.4287 140.314 19.3213 140.034 19.228C139.754 19.1253 139.338 19.018 138.788 18.906C137.994 18.738 137.406 18.4813 137.024 18.136C136.65 17.7907 136.464 17.3333 136.464 16.764C136.464 16.3907 136.576 16.0407 136.8 15.714C137.024 15.378 137.355 15.1073 137.794 14.902C138.242 14.6873 138.774 14.58 139.39 14.58C140.015 14.58 140.556 14.6827 141.014 14.888C141.471 15.084 141.816 15.322 142.05 15.602C142.292 15.8727 142.414 16.1153 142.414 16.33C142.414 16.414 142.381 16.4887 142.316 16.554C142.26 16.61 142.19 16.638 142.106 16.638H141.07C140.995 16.638 140.916 16.6053 140.832 16.54C140.766 16.4933 140.664 16.4047 140.524 16.274C140.384 16.1433 140.22 16.0407 140.034 15.966C139.847 15.8913 139.628 15.854 139.376 15.854C139.03 15.854 138.76 15.9287 138.564 16.078C138.377 16.2273 138.284 16.4233 138.284 16.666C138.284 16.8433 138.33 16.988 138.424 17.1C138.517 17.212 138.699 17.3193 138.97 17.422C139.24 17.5247 139.646 17.6273 140.188 17.73C141.084 17.9073 141.723 18.1827 142.106 18.556C142.498 18.9293 142.694 19.3867 142.694 19.928C142.694 20.5813 142.409 21.1133 141.84 21.524C141.27 21.9347 140.472 22.14 139.446 22.14ZM144.419 13.516C144.326 13.516 144.246 13.4833 144.181 13.418C144.116 13.3527 144.083 13.2733 144.083 13.18V12.172C144.083 12.0787 144.116 11.9993 144.181 11.934C144.246 11.8687 144.326 11.836 144.419 11.836H145.693C145.786 11.836 145.866 11.8687 145.931 11.934C146.006 11.9993 146.043 12.0787 146.043 12.172V13.18C146.043 13.2733 146.01 13.3527 145.945 13.418C145.88 13.4833 145.796 13.516 145.693 13.516H144.419ZM144.475 22C144.382 22 144.302 21.9673 144.237 21.902C144.172 21.8367 144.139 21.7573 144.139 21.664V15.056C144.139 14.9627 144.172 14.8833 144.237 14.818C144.302 14.7527 144.382 14.72 144.475 14.72H145.637C145.74 14.72 145.819 14.7527 145.875 14.818C145.94 14.874 145.973 14.9533 145.973 15.056V21.664C145.973 21.7573 145.94 21.8367 145.875 21.902C145.819 21.9673 145.74 22 145.637 22H144.475ZM151.05 22.14C149.958 22.14 149.114 21.86 148.516 21.3C147.919 20.7307 147.597 19.956 147.55 18.976L147.536 18.36L147.55 17.744C147.597 16.7733 147.924 16.0033 148.53 15.434C149.137 14.8647 149.977 14.58 151.05 14.58C152.124 14.58 152.964 14.8647 153.57 15.434C154.177 16.0033 154.504 16.7733 154.55 17.744C154.56 17.856 154.564 18.0613 154.564 18.36C154.564 18.6587 154.56 18.864 154.55 18.976C154.504 19.956 154.182 20.7307 153.584 21.3C152.987 21.86 152.142 22.14 151.05 22.14ZM151.05 20.754C151.545 20.754 151.928 20.6 152.198 20.292C152.469 19.9747 152.618 19.5127 152.646 18.906C152.656 18.8127 152.66 18.6307 152.66 18.36C152.66 18.0893 152.656 17.9073 152.646 17.814C152.618 17.2073 152.469 16.75 152.198 16.442C151.928 16.1247 151.545 15.966 151.05 15.966C150.556 15.966 150.173 16.1247 149.902 16.442C149.632 16.75 149.482 17.2073 149.454 17.814L149.44 18.36L149.454 18.906C149.482 19.5127 149.632 19.9747 149.902 20.292C150.173 20.6 150.556 20.754 151.05 20.754ZM156.451 22C156.358 22 156.279 21.9673 156.213 21.902C156.148 21.8367 156.115 21.7573 156.115 21.664V15.056C156.115 14.9627 156.148 14.8833 156.213 14.818C156.279 14.7527 156.358 14.72 156.451 14.72H157.599C157.693 14.72 157.772 14.7527 157.837 14.818C157.903 14.8833 157.935 14.9627 157.935 15.056V15.63C158.486 14.93 159.265 14.58 160.273 14.58C161.132 14.58 161.813 14.8647 162.317 15.434C162.821 15.994 163.073 16.7593 163.073 17.73V21.664C163.073 21.7573 163.041 21.8367 162.975 21.902C162.919 21.9673 162.84 22 162.737 22H161.505C161.412 22 161.333 21.9673 161.267 21.902C161.202 21.8367 161.169 21.7573 161.169 21.664V17.814C161.169 17.2633 161.034 16.8387 160.763 16.54C160.502 16.232 160.119 16.078 159.615 16.078C159.121 16.078 158.729 16.232 158.439 16.54C158.159 16.848 158.019 17.2727 158.019 17.814V21.664C158.019 21.7573 157.987 21.8367 157.921 21.902C157.865 21.9673 157.786 22 157.683 22H156.451ZM166.966 22.14C166.49 22.14 166.051 22.0467 165.65 21.86C165.258 21.664 164.945 21.4027 164.712 21.076C164.488 20.7493 164.376 20.39 164.376 19.998C164.376 19.3633 164.632 18.85 165.146 18.458C165.659 18.066 166.364 17.8 167.26 17.66L169.178 17.38V17.086C169.178 16.6753 169.075 16.3673 168.87 16.162C168.664 15.9567 168.333 15.854 167.876 15.854C167.568 15.854 167.316 15.9147 167.12 16.036C166.933 16.148 166.784 16.26 166.672 16.372C166.56 16.4933 166.485 16.5727 166.448 16.61C166.41 16.722 166.34 16.778 166.238 16.778H165.16C165.076 16.778 165.001 16.75 164.936 16.694C164.88 16.638 164.852 16.5633 164.852 16.47C164.861 16.2367 164.973 15.9707 165.188 15.672C165.412 15.3733 165.752 15.1167 166.21 14.902C166.667 14.6873 167.227 14.58 167.89 14.58C168.991 14.58 169.794 14.8273 170.298 15.322C170.802 15.8167 171.054 16.4653 171.054 17.268V21.664C171.054 21.7573 171.021 21.8367 170.956 21.902C170.9 21.9673 170.82 22 170.718 22H169.584C169.49 22 169.411 21.9673 169.346 21.902C169.28 21.8367 169.248 21.7573 169.248 21.664V21.118C169.042 21.4167 168.748 21.664 168.366 21.86C167.992 22.0467 167.526 22.14 166.966 22.14ZM167.442 20.81C167.955 20.81 168.375 20.642 168.702 20.306C169.028 19.97 169.192 19.48 169.192 18.836V18.542L167.792 18.766C167.25 18.85 166.84 18.9853 166.56 19.172C166.289 19.3587 166.154 19.5873 166.154 19.858C166.154 20.1567 166.28 20.39 166.532 20.558C166.784 20.726 167.087 20.81 167.442 20.81ZM173.2 22C173.106 22 173.027 21.9673 172.962 21.902C172.896 21.8367 172.864 21.7573 172.864 21.664V12.396C172.864 12.2933 172.896 12.214 172.962 12.158C173.027 12.0927 173.106 12.06 173.2 12.06H174.362C174.464 12.06 174.544 12.0927 174.6 12.158C174.665 12.214 174.698 12.2933 174.698 12.396V21.664C174.698 21.7573 174.665 21.8367 174.6 21.902C174.544 21.9673 174.464 22 174.362 22H173.2ZM180.104 24.66C180.011 24.66 179.931 24.6273 179.866 24.562C179.801 24.506 179.768 24.4267 179.768 24.324V15.056C179.768 14.9533 179.801 14.874 179.866 14.818C179.931 14.7527 180.011 14.72 180.104 14.72H181.21C181.313 14.72 181.392 14.7527 181.448 14.818C181.513 14.874 181.546 14.9533 181.546 15.056V15.616C182.069 14.9253 182.815 14.58 183.786 14.58C184.729 14.58 185.452 14.8787 185.956 15.476C186.46 16.064 186.731 16.862 186.768 17.87C186.777 17.982 186.782 18.1453 186.782 18.36C186.782 18.584 186.777 18.752 186.768 18.864C186.731 19.844 186.46 20.6373 185.956 21.244C185.452 21.8413 184.729 22.14 183.786 22.14C182.843 22.14 182.125 21.8087 181.63 21.146V24.324C181.63 24.4267 181.597 24.506 181.532 24.562C181.476 24.6273 181.397 24.66 181.294 24.66H180.104ZM183.268 20.642C184.276 20.642 184.813 20.0213 184.878 18.78C184.887 18.6867 184.892 18.5467 184.892 18.36C184.892 18.1733 184.887 18.0333 184.878 17.94C184.813 16.6987 184.276 16.078 183.268 16.078C182.727 16.078 182.325 16.2507 182.064 16.596C181.803 16.9413 181.658 17.366 181.63 17.87L181.616 18.402L181.63 18.948C181.649 19.4147 181.793 19.816 182.064 20.152C182.344 20.4787 182.745 20.642 183.268 20.642ZM188.704 22C188.61 22 188.531 21.9673 188.466 21.902C188.4 21.8367 188.368 21.7573 188.368 21.664V12.396C188.368 12.2933 188.4 12.214 188.466 12.158C188.531 12.0927 188.61 12.06 188.704 12.06H189.95C190.052 12.06 190.132 12.0927 190.188 12.158C190.253 12.214 190.286 12.2933 190.286 12.396V15.588C190.846 14.916 191.602 14.58 192.554 14.58C193.412 14.58 194.098 14.8647 194.612 15.434C195.125 15.994 195.382 16.7593 195.382 17.73V21.664C195.382 21.7573 195.349 21.8367 195.284 21.902C195.228 21.9673 195.148 22 195.046 22H193.786C193.692 22 193.613 21.9673 193.548 21.902C193.482 21.8367 193.45 21.7573 193.45 21.664V17.814C193.45 17.2633 193.314 16.8387 193.044 16.54C192.782 16.232 192.4 16.078 191.896 16.078C191.401 16.078 191.009 16.232 190.72 16.54C190.43 16.848 190.286 17.2727 190.286 17.814V21.664C190.286 21.7573 190.253 21.8367 190.188 21.902C190.132 21.9673 190.052 22 189.95 22H188.704ZM200.378 22.14C199.286 22.14 198.442 21.86 197.844 21.3C197.247 20.7307 196.925 19.956 196.878 18.976L196.864 18.36L196.878 17.744C196.925 16.7733 197.252 16.0033 197.858 15.434C198.465 14.8647 199.305 14.58 200.378 14.58C201.452 14.58 202.292 14.8647 202.898 15.434C203.505 16.0033 203.832 16.7733 203.878 17.744C203.888 17.856 203.892 18.0613 203.892 18.36C203.892 18.6587 203.888 18.864 203.878 18.976C203.832 19.956 203.51 20.7307 202.912 21.3C202.315 21.86 201.47 22.14 200.378 22.14ZM200.378 20.754C200.873 20.754 201.256 20.6 201.526 20.292C201.797 19.9747 201.946 19.5127 201.974 18.906C201.984 18.8127 201.988 18.6307 201.988 18.36C201.988 18.0893 201.984 17.9073 201.974 17.814C201.946 17.2073 201.797 16.75 201.526 16.442C201.256 16.1247 200.873 15.966 200.378 15.966C199.884 15.966 199.501 16.1247 199.23 16.442C198.96 16.75 198.81 17.2073 198.782 17.814L198.768 18.36L198.782 18.906C198.81 19.5127 198.96 19.9747 199.23 20.292C199.501 20.6 199.884 20.754 200.378 20.754ZM208.679 22C207.83 22 207.19 21.7807 206.761 21.342C206.341 20.894 206.131 20.2407 206.131 19.382V16.204H205.025C204.932 16.204 204.852 16.1713 204.787 16.106C204.722 16.0313 204.689 15.9473 204.689 15.854V15.056C204.689 14.9627 204.722 14.8833 204.787 14.818C204.852 14.7527 204.932 14.72 205.025 14.72H206.131V12.396C206.131 12.2933 206.164 12.214 206.229 12.158C206.294 12.0927 206.374 12.06 206.467 12.06H207.601C207.704 12.06 207.783 12.0927 207.839 12.158C207.904 12.214 207.937 12.2933 207.937 12.396V14.72H209.687C209.79 14.72 209.869 14.7527 209.925 14.818C209.99 14.874 210.023 14.9533 210.023 15.056V15.854C210.023 15.9567 209.99 16.0407 209.925 16.106C209.86 16.1713 209.78 16.204 209.687 16.204H207.937V19.242C207.937 19.6433 208.007 19.9467 208.147 20.152C208.287 20.3573 208.52 20.46 208.847 20.46H209.813C209.906 20.46 209.986 20.4927 210.051 20.558C210.116 20.6233 210.149 20.7027 210.149 20.796V21.664C210.149 21.7573 210.116 21.8367 210.051 21.902C209.995 21.9673 209.916 22 209.813 22H208.679ZM214.611 22.14C213.519 22.14 212.674 21.86 212.077 21.3C211.479 20.7307 211.157 19.956 211.111 18.976L211.097 18.36L211.111 17.744C211.157 16.7733 211.484 16.0033 212.091 15.434C212.697 14.8647 213.537 14.58 214.611 14.58C215.684 14.58 216.524 14.8647 217.131 15.434C217.737 16.0033 218.064 16.7733 218.111 17.744C218.12 17.856 218.125 18.0613 218.125 18.36C218.125 18.6587 218.12 18.864 218.111 18.976C218.064 19.956 217.742 20.7307 217.145 21.3C216.547 21.86 215.703 22.14 214.611 22.14ZM214.611 20.754C215.105 20.754 215.488 20.6 215.759 20.292C216.029 19.9747 216.179 19.5127 216.207 18.906C216.216 18.8127 216.221 18.6307 216.221 18.36C216.221 18.0893 216.216 17.9073 216.207 17.814C216.179 17.2073 216.029 16.75 215.759 16.442C215.488 16.1247 215.105 15.966 214.611 15.966C214.116 15.966 213.733 16.1247 213.463 16.442C213.192 16.75 213.043 17.2073 213.015 17.814L213.001 18.36L213.015 18.906C213.043 19.5127 213.192 19.9747 213.463 20.292C213.733 20.6 214.116 20.754 214.611 20.754ZM222.966 25.08C222.135 25.08 221.463 24.94 220.95 24.66C220.437 24.3893 220.073 24.0767 219.858 23.722C219.643 23.3673 219.536 23.064 219.536 22.812C219.536 22.728 219.569 22.6533 219.634 22.588C219.709 22.5227 219.788 22.49 219.872 22.49H221.09C221.174 22.49 221.244 22.5087 221.3 22.546C221.365 22.5927 221.417 22.672 221.454 22.784C221.547 23.036 221.697 23.246 221.902 23.414C222.117 23.5913 222.448 23.68 222.896 23.68C223.456 23.68 223.867 23.554 224.128 23.302C224.399 23.05 224.534 22.616 224.534 22V21.048C224.021 21.6547 223.302 21.958 222.378 21.958C221.407 21.958 220.675 21.6593 220.18 21.062C219.695 20.4647 219.433 19.662 219.396 18.654L219.382 18.276L219.396 17.898C219.433 16.9087 219.699 16.1107 220.194 15.504C220.689 14.888 221.417 14.58 222.378 14.58C222.873 14.58 223.307 14.6733 223.68 14.86C224.053 15.0467 224.366 15.3033 224.618 15.63V15.07C224.618 14.9673 224.651 14.8833 224.716 14.818C224.781 14.7527 224.861 14.72 224.954 14.72H226.088C226.181 14.72 226.261 14.7573 226.326 14.832C226.391 14.8973 226.424 14.9767 226.424 15.07L226.438 21.818C226.438 22.854 226.149 23.6567 225.57 24.226C224.991 24.7953 224.123 25.08 222.966 25.08ZM222.896 20.474C223.428 20.474 223.825 20.306 224.086 19.97C224.357 19.634 224.506 19.2233 224.534 18.738C224.543 18.6633 224.548 18.5093 224.548 18.276C224.548 18.052 224.543 17.9027 224.534 17.828C224.506 17.3333 224.357 16.918 224.086 16.582C223.825 16.246 223.428 16.078 222.896 16.078C221.888 16.078 221.356 16.6987 221.3 17.94L221.286 18.276C221.286 18.9387 221.403 19.4707 221.636 19.872C221.879 20.2733 222.299 20.474 222.896 20.474ZM228.639 22C228.546 22 228.466 21.9673 228.401 21.902C228.336 21.8367 228.303 21.7573 228.303 21.664V15.07C228.303 14.9767 228.336 14.8973 228.401 14.832C228.466 14.7573 228.546 14.72 228.639 14.72H229.773C229.876 14.72 229.96 14.7527 230.025 14.818C230.09 14.8833 230.123 14.9673 230.123 15.07V15.644C230.347 15.3453 230.627 15.1167 230.963 14.958C231.308 14.7993 231.7 14.72 232.139 14.72H232.713C232.816 14.72 232.895 14.7527 232.951 14.818C233.016 14.874 233.049 14.9533 233.049 15.056V16.064C233.049 16.1573 233.016 16.2367 232.951 16.302C232.895 16.3673 232.816 16.4 232.713 16.4H231.621C231.182 16.4 230.837 16.526 230.585 16.778C230.333 17.03 230.207 17.3753 230.207 17.814V21.664C230.207 21.7573 230.174 21.8367 230.109 21.902C230.044 21.9673 229.96 22 229.857 22H228.639ZM236.145 22.14C235.669 22.14 235.231 22.0467 234.829 21.86C234.437 21.664 234.125 21.4027 233.891 21.076C233.667 20.7493 233.555 20.39 233.555 19.998C233.555 19.3633 233.812 18.85 234.325 18.458C234.839 18.066 235.543 17.8 236.439 17.66L238.357 17.38V17.086C238.357 16.6753 238.255 16.3673 238.049 16.162C237.844 15.9567 237.513 15.854 237.055 15.854C236.747 15.854 236.495 15.9147 236.299 16.036C236.113 16.148 235.963 16.26 235.851 16.372C235.739 16.4933 235.665 16.5727 235.627 16.61C235.59 16.722 235.52 16.778 235.417 16.778H234.339C234.255 16.778 234.181 16.75 234.115 16.694C234.059 16.638 234.031 16.5633 234.031 16.47C234.041 16.2367 234.153 15.9707 234.367 15.672C234.591 15.3733 234.932 15.1167 235.389 14.902C235.847 14.6873 236.407 14.58 237.069 14.58C238.171 14.58 238.973 14.8273 239.477 15.322C239.981 15.8167 240.233 16.4653 240.233 17.268V21.664C240.233 21.7573 240.201 21.8367 240.135 21.902C240.079 21.9673 240 22 239.897 22H238.763C238.67 22 238.591 21.9673 238.525 21.902C238.46 21.8367 238.427 21.7573 238.427 21.664V21.118C238.222 21.4167 237.928 21.664 237.545 21.86C237.172 22.0467 236.705 22.14 236.145 22.14ZM236.621 20.81C237.135 20.81 237.555 20.642 237.881 20.306C238.208 19.97 238.371 19.48 238.371 18.836V18.542L236.971 18.766C236.43 18.85 236.019 18.9853 235.739 19.172C235.469 19.3587 235.333 19.5873 235.333 19.858C235.333 20.1567 235.459 20.39 235.711 20.558C235.963 20.726 236.267 20.81 236.621 20.81ZM242.379 24.66C242.286 24.66 242.207 24.6273 242.141 24.562C242.076 24.506 242.043 24.4267 242.043 24.324V15.056C242.043 14.9533 242.076 14.874 242.141 14.818C242.207 14.7527 242.286 14.72 242.379 14.72H243.485C243.588 14.72 243.667 14.7527 243.723 14.818C243.789 14.874 243.821 14.9533 243.821 15.056V15.616C244.344 14.9253 245.091 14.58 246.061 14.58C247.004 14.58 247.727 14.8787 248.231 15.476C248.735 16.064 249.006 16.862 249.043 17.87C249.053 17.982 249.057 18.1453 249.057 18.36C249.057 18.584 249.053 18.752 249.043 18.864C249.006 19.844 248.735 20.6373 248.231 21.244C247.727 21.8413 247.004 22.14 246.061 22.14C245.119 22.14 244.4 21.8087 243.905 21.146V24.324C243.905 24.4267 243.873 24.506 243.807 24.562C243.751 24.6273 243.672 24.66 243.569 24.66H242.379ZM245.543 20.642C246.551 20.642 247.088 20.0213 247.153 18.78C247.163 18.6867 247.167 18.5467 247.167 18.36C247.167 18.1733 247.163 18.0333 247.153 17.94C247.088 16.6987 246.551 16.078 245.543 16.078C245.002 16.078 244.601 16.2507 244.339 16.596C244.078 16.9413 243.933 17.366 243.905 17.87L243.891 18.402L243.905 18.948C243.924 19.4147 244.069 19.816 244.339 20.152C244.619 20.4787 245.021 20.642 245.543 20.642ZM250.979 22C250.886 22 250.806 21.9673 250.741 21.902C250.676 21.8367 250.643 21.7573 250.643 21.664V12.396C250.643 12.2933 250.676 12.214 250.741 12.158C250.806 12.0927 250.886 12.06 250.979 12.06H252.225C252.328 12.06 252.407 12.0927 252.463 12.158C252.528 12.214 252.561 12.2933 252.561 12.396V15.588C253.121 14.916 253.877 14.58 254.829 14.58C255.688 14.58 256.374 14.8647 256.887 15.434C257.4 15.994 257.657 16.7593 257.657 17.73V21.664C257.657 21.7573 257.624 21.8367 257.559 21.902C257.503 21.9673 257.424 22 257.321 22H256.061C255.968 22 255.888 21.9673 255.823 21.902C255.758 21.8367 255.725 21.7573 255.725 21.664V17.814C255.725 17.2633 255.59 16.8387 255.319 16.54C255.058 16.232 254.675 16.078 254.171 16.078C253.676 16.078 253.284 16.232 252.995 16.54C252.706 16.848 252.561 17.2727 252.561 17.814V21.664C252.561 21.7573 252.528 21.8367 252.463 21.902C252.407 21.9673 252.328 22 252.225 22H250.979ZM262.57 22.14C261.534 22.14 260.708 21.8413 260.092 21.244C259.485 20.6373 259.163 19.788 259.126 18.696L259.112 18.346L259.126 17.996C259.172 16.932 259.499 16.0967 260.106 15.49C260.722 14.8833 261.543 14.58 262.57 14.58C263.671 14.58 264.52 14.916 265.118 15.588C265.724 16.26 266.028 17.156 266.028 18.276V18.57C266.028 18.6633 265.995 18.7427 265.93 18.808C265.864 18.8733 265.78 18.906 265.678 18.906H261.03V19.018C261.048 19.5313 261.188 19.9653 261.45 20.32C261.72 20.6653 262.089 20.838 262.556 20.838C263.106 20.838 263.55 20.6233 263.886 20.194C263.97 20.0913 264.035 20.026 264.082 19.998C264.138 19.97 264.217 19.956 264.32 19.956H265.524C265.608 19.956 265.678 19.984 265.734 20.04C265.799 20.0867 265.832 20.1473 265.832 20.222C265.832 20.446 265.696 20.712 265.426 21.02C265.164 21.3187 264.786 21.58 264.292 21.804C263.797 22.028 263.223 22.14 262.57 22.14ZM264.124 17.73V17.688C264.124 17.1373 263.984 16.694 263.704 16.358C263.433 16.022 263.055 15.854 262.57 15.854C262.084 15.854 261.706 16.022 261.436 16.358C261.165 16.694 261.03 17.1373 261.03 17.688V17.73H264.124ZM267.85 22C267.757 22 267.677 21.9673 267.612 21.902C267.547 21.8367 267.514 21.7573 267.514 21.664V15.07C267.514 14.9767 267.547 14.8973 267.612 14.832C267.677 14.7573 267.757 14.72 267.85 14.72H268.984C269.087 14.72 269.171 14.7527 269.236 14.818C269.301 14.8833 269.334 14.9673 269.334 15.07V15.644C269.558 15.3453 269.838 15.1167 270.174 14.958C270.519 14.7993 270.911 14.72 271.35 14.72H271.924C272.027 14.72 272.106 14.7527 272.162 14.818C272.227 14.874 272.26 14.9533 272.26 15.056V16.064C272.26 16.1573 272.227 16.2367 272.162 16.302C272.106 16.3673 272.027 16.4 271.924 16.4H270.832C270.393 16.4 270.048 16.526 269.796 16.778C269.544 17.03 269.418 17.3753 269.418 17.814V21.664C269.418 21.7573 269.385 21.8367 269.32 21.902C269.255 21.9673 269.171 22 269.068 22H267.85Z" fill="white"/>
</svg>
